<?xml version="1.0" encoding="UTF-8" standalone="no" ?>
<!DOCTYPE svg PUBLIC "-//W3C//DTD SVG 1.1//EN" "http://www.w3.org/Graphics/SVG/1.1/DTD/svg11.dtd">
<svg xmlns="http://www.w3.org/2000/svg" xmlns:xlink="http://www.w3.org/1999/xlink" version="1.1" width="346.80116149902346" height="142.52479999999997" xml:space="preserve">
<desc>Created with Fabric.js 1.6.0-rc.1</desc>
<defs></defs>
<g style="stroke: none; stroke-width: 1; stroke-dasharray: none; stroke-linecap: butt; stroke-linejoin: miter; stroke-miterlimit: 10; fill: none; fill-rule: nonzero; opacity: 1;" transform="translate(10.000000000000007 9.999999999999993) scale(0.24 0.24)" >
  <path d="M 392.298 10.48 H 40.03 c -17.687 0 -32.024 14.337 -32.024 32.024 v 426.991 c 0 17.687 14.337 32.024 32.024 32.024 h 352.268 V 10.48 z" style="stroke: none; stroke-width: 1; stroke-dasharray: none; stroke-linecap: butt; stroke-linejoin: miter; stroke-miterlimit: 10; fill: #60e8dd; fill-rule: nonzero; opacity: 1;" transform=" matrix(1 0 0 1 0 0) " stroke-linecap="round" />
  <polygon points="499.05,170.6 477.7,213.3 499.05,256 392.3,256 392.3,170.6 " style="stroke: none; stroke-width: 1; stroke-dasharray: none; stroke-linecap: butt; stroke-linejoin: miter; stroke-miterlimit: 10; fill: #85B3C1; fill-rule: nonzero; opacity: 1;" transform="  matrix(1 0 0 1 0 0) "/>
  <path d="M 8.006 42.504 v 426.991 c 0 17.687 14.337 32.024 32.024 32.024 V 10.48 C 22.343 10.48 8.006 24.817 8.006 42.504 z" style="stroke: none; stroke-width: 1; stroke-dasharray: none; stroke-linecap: butt; stroke-linejoin: miter; stroke-miterlimit: 10; fill: #536367; fill-rule: nonzero; opacity: 1;" transform=" matrix(1 0 0 1 0 0) " stroke-linecap="round" />
  <path d="M 40.03 501.52 h 352.268 v -64.049 H 40.03 c -17.687 0 -32.024 14.337 -32.024 32.024 l 0 0 C 8.006 487.182 22.343 501.52 40.03 501.52 z" style="stroke: none; stroke-width: 1; stroke-dasharray: none; stroke-linecap: butt; stroke-linejoin: miter; stroke-miterlimit: 10; fill: #FFFFFF; fill-rule: nonzero; opacity: 1;" transform=" matrix(1 0 0 1 0 0) " stroke-linecap="round" />
  <path d="M 40.03 437.471 c -17.687 0 -32.024 14.337 -32.024 32.024 h 384.292 v -32.024 H 40.03 z" style="stroke: none; stroke-width: 1; stroke-dasharray: none; stroke-linecap: butt; stroke-linejoin: miter; stroke-miterlimit: 10; fill: #E6E6E6; fill-rule: nonzero; opacity: 1;" transform=" matrix(1 0 0 1 0 0) " stroke-linecap="round" />
  <rect x="392.3" y="170.6" rx="0" ry="0" width="32.02" height="85.4" style="stroke: none; stroke-width: 1; stroke-dasharray: none; stroke-linecap: butt; stroke-linejoin: miter; stroke-miterlimit: 10; fill: #6495A0; fill-rule: nonzero; opacity: 1;" transform=" matrix(1 0 0 1 0 0) "/>
  <path d="M 368.28 127.903 h -16.012 V 111.89 h 16.012 V 127.903 z M 368.28 95.878 h -16.012 V 31.83 h 16.012 V 95.878 z" style="stroke: none; stroke-width: 1; stroke-dasharray: none; stroke-linecap: butt; stroke-linejoin: miter; stroke-miterlimit: 10; fill: #FFFFFF; fill-rule: nonzero; opacity: 1;" transform=" matrix(1 0 0 1 0 0) " stroke-linecap="round" />
  <path d="M 486.647 213.301 L 512 162.596 H 400.304 V 2.474 H 40.03 C 17.957 2.474 0 20.431 0 42.504 v 426.991 c 0 22.073 17.957 40.03 40.03 40.03 h 360.274 v -80.061 V 264.006 H 512 L 486.647 213.301 z M 40.03 493.514 c -13.244 0 -24.018 -10.774 -24.018 -24.018 c 0 -13.244 10.774 -24.018 24.018 -24.018 h 344.262 v 16.012 H 40.03 v 16.012 h 344.262 v 16.012 H 40.03 z M 384.292 429.465 H 58.711 V 74.529 H 42.699 v 354.937 H 40.03 c -9.005 0 -17.323 2.99 -24.018 8.027 V 42.504 c 0 -13.244 10.774 -24.018 24.018 -24.018 h 344.262 v 144.11 v 101.41 V 429.465 z M 486.092 247.994 h -85.788 v -69.386 h 85.788 l -17.346 34.693 L 486.092 247.994 z" style="stroke: none; stroke-width: 1; stroke-dasharray: none; stroke-linecap: butt; stroke-linejoin: miter; stroke-miterlimit: 10; fill: #000000; fill-rule: nonzero; opacity: 1;" transform=" matrix(1 0 0 1 0 0) " stroke-linecap="round" />
  <rect x="440.33" y="205.3" rx="0" ry="0" width="16.01" height="16.01" style="stroke: none; stroke-width: 1; stroke-dasharray: none; stroke-linecap: butt; stroke-linejoin: miter; stroke-miterlimit: 10; fill: #000000; fill-rule: nonzero; opacity: 1;" transform=" matrix(1 0 0 1 0 0) "/>
  <rect x="408.31" y="205.3" rx="0" ry="0" width="16.01" height="16.01" style="stroke: none; stroke-width: 1; stroke-dasharray: none; stroke-linecap: butt; stroke-linejoin: miter; stroke-miterlimit: 10; fill: #000000; fill-rule: nonzero; opacity: 1;" transform=" matrix(1 0 0 1 0 0) "/>
  <rect x="42.7" y="42.5" rx="0" ry="0" width="16.01" height="16.01" style="stroke: none; stroke-width: 1; stroke-dasharray: none; stroke-linecap: butt; stroke-linejoin: miter; stroke-miterlimit: 10; fill: #000000; fill-rule: nonzero; opacity: 1;" transform=" matrix(1 0 0 1 0 0) "/>
  <rect x="175.6" y="173.27" rx="0" ry="0" width="85.4" height="16.01" style="stroke: none; stroke-width: 1; stroke-dasharray: none; stroke-linecap: butt; stroke-linejoin: miter; stroke-miterlimit: 10; fill: #000000; fill-rule: nonzero; opacity: 1;" transform=" matrix(1 0 0 1 0 0) "/>
  <rect x="138.24" y="205.3" rx="0" ry="0" width="160.12" height="16.01" style="stroke: none; stroke-width: 1; stroke-dasharray: none; stroke-linecap: butt; stroke-linejoin: miter; stroke-miterlimit: 10; fill: #000000; fill-rule: nonzero; opacity: 1;" transform=" matrix(1 0 0 1 0 0) "/>
  <rect x="159.59" y="237.32" rx="0" ry="0" width="16.01" height="16.01" style="stroke: none; stroke-width: 1; stroke-dasharray: none; stroke-linecap: butt; stroke-linejoin: miter; stroke-miterlimit: 10; fill: #000000; fill-rule: nonzero; opacity: 1;" transform=" matrix(1 0 0 1 0 0) "/>
  <rect x="223.64" y="237.32" rx="0" ry="0" width="16.01" height="16.01" style="stroke: none; stroke-width: 1; stroke-dasharray: none; stroke-linecap: butt; stroke-linejoin: miter; stroke-miterlimit: 10; fill: #000000; fill-rule: nonzero; opacity: 1;" transform=" matrix(1 0 0 1 0 0) "/>
  <rect x="287.69" y="237.32" rx="0" ry="0" width="16.01" height="16.01" style="stroke: none; stroke-width: 1; stroke-dasharray: none; stroke-linecap: butt; stroke-linejoin: miter; stroke-miterlimit: 10; fill: #000000; fill-rule: nonzero; opacity: 1;" transform=" matrix(1 0 0 1 0 0) "/>
  <rect x="255.66" y="237.32" rx="0" ry="0" width="16.01" height="16.01" style="stroke: none; stroke-width: 1; stroke-dasharray: none; stroke-linecap: butt; stroke-linejoin: miter; stroke-miterlimit: 10; fill: #000000; fill-rule: nonzero; opacity: 1;" transform=" matrix(1 0 0 1 0 0) "/>
  <rect x="191.61" y="237.32" rx="0" ry="0" width="16.01" height="16.01" style="stroke: none; stroke-width: 1; stroke-dasharray: none; stroke-linecap: butt; stroke-linejoin: miter; stroke-miterlimit: 10; fill: #000000; fill-rule: nonzero; opacity: 1;" transform=" matrix(1 0 0 1 0 0) "/>
  <rect x="127.56" y="237.32" rx="0" ry="0" width="16.01" height="16.01" style="stroke: none; stroke-width: 1; stroke-dasharray: none; stroke-linecap: butt; stroke-linejoin: miter; stroke-miterlimit: 10; fill: #000000; fill-rule: nonzero; opacity: 1;" transform=" matrix(1 0 0 1 0 0) "/>
</g>
  <g transform="translate(206.66 55.55) scale(0.85 0.85)">
   <text font-family="ADAMCG PRO" font-size="40" font-weight="normal" style="stroke: none; stroke-width: 1; stroke-dasharray: none; stroke-linecap: butt; stroke-linejoin: miter; stroke-miterlimit: 10; fill: #35ccc4; fill-rule: nonzero; opacity: 1;" ><tspan x="-89.69" y="8.98" style="stroke: none; stroke-width: 0; stroke-dasharray: none; stroke-linecap: butt; stroke-linejoin: miter; stroke-miterlimit: 4; fill: #35ccc4; fill-rule: ; opacity: 1;">E</tspan><tspan x="-66.43" y="8.98" style="stroke: none; stroke-width: 0; stroke-dasharray: none; stroke-linecap: butt; stroke-linejoin: miter; stroke-miterlimit: 4; fill: #35ccc4; fill-rule: ; opacity: 1;">d</tspan><tspan x="-39.43" y="8.98" style="stroke: none; stroke-width: 0; stroke-dasharray: none; stroke-linecap: butt; stroke-linejoin: miter; stroke-miterlimit: 4; fill: #35ccc4; fill-rule: ; opacity: 1;">u</tspan><tspan x="-11.8" y="8.98" style="stroke: none; stroke-width: 0; stroke-dasharray: none; stroke-linecap: butt; stroke-linejoin: miter; stroke-miterlimit: 4; fill: #35ccc4; fill-rule: ; opacity: 1;">c</tspan><tspan x="15.27" y="8.98" style="stroke: none; stroke-width: 0; stroke-dasharray: none; stroke-linecap: butt; stroke-linejoin: miter; stroke-miterlimit: 4; fill: #35ccc4; fill-rule: ; opacity: 1;">a</tspan><tspan x="43.07" y="8.98" style="stroke: none; stroke-width: 0; stroke-dasharray: none; stroke-linecap: butt; stroke-linejoin: miter; stroke-miterlimit: 4; fill: #35ccc4; fill-rule: ; opacity: 1;">t</tspan><tspan x="66.43" y="8.98" style="stroke: none; stroke-width: 0; stroke-dasharray: none; stroke-linecap: butt; stroke-linejoin: miter; stroke-miterlimit: 4; fill: #35ccc4; fill-rule: ; opacity: 1;">e</tspan></text>
 </g>
  <g transform="translate(308.32 56.08) scale(0.83 0.83)">
   <text font-family="Ikaros" font-size="40" font-weight="normal" style="stroke: none; stroke-width: 1; stroke-dasharray: none; stroke-linecap: butt; stroke-linejoin: miter; stroke-miterlimit: 10; fill: #e8531c; fill-rule: nonzero; opacity: 1;" ><tspan x="-34.82" y="8.98" style="stroke: none; stroke-width: 0; stroke-dasharray: none; stroke-linecap: butt; stroke-linejoin: miter; stroke-miterlimit: 4; fill: #e8531c; fill-rule: ; opacity: 1;">c</tspan><tspan x="-16.3" y="8.98" style="stroke: none; stroke-width: 0; stroke-dasharray: none; stroke-linecap: butt; stroke-linejoin: miter; stroke-miterlimit: 4; fill: #e8531c; fill-rule: ; opacity: 1;">o</tspan><tspan x="5.5" y="8.98" style="stroke: none; stroke-width: 0; stroke-dasharray: none; stroke-linecap: butt; stroke-linejoin: miter; stroke-miterlimit: 4; fill: #e8531c; fill-rule: ; opacity: 1;">o</tspan><tspan x="27.3" y="8.98" style="stroke: none; stroke-width: 0; stroke-dasharray: none; stroke-linecap: butt; stroke-linejoin: miter; stroke-miterlimit: 4; fill: #e8531c; fill-rule: ; opacity: 1;">l</tspan></text>
 </g>
  <g transform="translate(232.21 83.43) scale(0.54 0.54)">
   <text font-family="ADAMCG PRO" font-size="40" font-weight="normal" style="stroke: none; stroke-width: 1; stroke-dasharray: none; stroke-linecap: butt; stroke-linejoin: miter; stroke-miterlimit: 10; fill: #0c0d0d; fill-rule: nonzero; opacity: 1;" ><tspan x="-173.96" y="8.98" style="stroke: none; stroke-width: 0; stroke-dasharray: none; stroke-linecap: butt; stroke-linejoin: miter; stroke-miterlimit: 4; fill: #0c0d0d; fill-rule: ; opacity: 1;">l</tspan><tspan x="-153.53" y="8.98" style="stroke: none; stroke-width: 0; stroke-dasharray: none; stroke-linecap: butt; stroke-linejoin: miter; stroke-miterlimit: 4; fill: #0c0d0d; fill-rule: ; opacity: 1;">e</tspan><tspan x="-130.26" y="8.98" style="stroke: none; stroke-width: 0; stroke-dasharray: none; stroke-linecap: butt; stroke-linejoin: miter; stroke-miterlimit: 4; fill: #0c0d0d; fill-rule: ; opacity: 1;">a</tspan><tspan x="-102.47" y="8.98" style="stroke: none; stroke-width: 0; stroke-dasharray: none; stroke-linecap: butt; stroke-linejoin: miter; stroke-miterlimit: 4; fill: #0c0d0d; fill-rule: ; opacity: 1;">r</tspan><tspan x="-76.85" y="8.98" style="stroke: none; stroke-width: 0; stroke-dasharray: none; stroke-linecap: butt; stroke-linejoin: miter; stroke-miterlimit: 4; fill: #0c0d0d; fill-rule: ; opacity: 1;">i</tspan><tspan x="-66.06" y="8.98" style="stroke: none; stroke-width: 0; stroke-dasharray: none; stroke-linecap: butt; stroke-linejoin: miter; stroke-miterlimit: 4; fill: #0c0d0d; fill-rule: ; opacity: 1;">n</tspan><tspan x="-36.55" y="8.98" style="stroke: none; stroke-width: 0; stroke-dasharray: none; stroke-linecap: butt; stroke-linejoin: miter; stroke-miterlimit: 4; fill: #0c0d0d; fill-rule: ; opacity: 1;">g</tspan><tspan x="-8.15" y="8.98" style="stroke: none; stroke-width: 0; stroke-dasharray: none; stroke-linecap: butt; stroke-linejoin: miter; stroke-miterlimit: 4; fill: #0c0d0d; fill-rule: ; opacity: 1;"> </tspan><tspan x="3.84" y="8.98" style="stroke: none; stroke-width: 0; stroke-dasharray: none; stroke-linecap: butt; stroke-linejoin: miter; stroke-miterlimit: 4; fill: #0c0d0d; fill-rule: ; opacity: 1;">w</tspan><tspan x="48.66" y="8.98" style="stroke: none; stroke-width: 0; stroke-dasharray: none; stroke-linecap: butt; stroke-linejoin: miter; stroke-miterlimit: 4; fill: #0c0d0d; fill-rule: ; opacity: 1;">e</tspan><tspan x="71.92" y="8.98" style="stroke: none; stroke-width: 0; stroke-dasharray: none; stroke-linecap: butt; stroke-linejoin: miter; stroke-miterlimit: 4; fill: #0c0d0d; fill-rule: ; opacity: 1;">b</tspan><tspan x="95.44" y="8.98" style="stroke: none; stroke-width: 0; stroke-dasharray: none; stroke-linecap: butt; stroke-linejoin: miter; stroke-miterlimit: 4; fill: #0c0d0d; fill-rule: ; opacity: 1;">s</tspan><tspan x="116.55" y="8.98" style="stroke: none; stroke-width: 0; stroke-dasharray: none; stroke-linecap: butt; stroke-linejoin: miter; stroke-miterlimit: 4; fill: #0c0d0d; fill-rule: ; opacity: 1;">i</tspan><tspan x="127.33" y="8.98" style="stroke: none; stroke-width: 0; stroke-dasharray: none; stroke-linecap: butt; stroke-linejoin: miter; stroke-miterlimit: 4; fill: #0c0d0d; fill-rule: ; opacity: 1;">t</tspan><tspan x="150.69" y="8.98" style="stroke: none; stroke-width: 0; stroke-dasharray: none; stroke-linecap: butt; stroke-linejoin: miter; stroke-miterlimit: 4; fill: #0c0d0d; fill-rule: ; opacity: 1;">e</tspan></text>
 </g>
</svg>