<?xml version="1.0" encoding="UTF-8" standalone="no" ?>
<!DOCTYPE svg PUBLIC "-//W3C//DTD SVG 1.1//EN" "http://www.w3.org/Graphics/SVG/1.1/DTD/svg11.dtd">
<svg xmlns="http://www.w3.org/2000/svg" xmlns:xlink="http://www.w3.org/1999/xlink" version="1.1" width="192.63400000000001" height="214.9362" xml:space="preserve">
<desc>Created with Fabric.js 1.6.0-rc.1</desc>
<defs></defs>
<g style="stroke: none; stroke-width: 1; stroke-dasharray: none; stroke-linecap: butt; stroke-linejoin: miter; stroke-miterlimit: 10; fill: none; fill-rule: nonzero; opacity: 1;" transform="translate(10 10) scale(0.38 0.38)" >
  <path d="M 234.742 296.592 c 6.6 3.3 13.878 5.018 21.256 5.018 c 7.379 0 14.656 -1.718 21.256 -5.018 l 86.293 -43.146 c -12.058 -14.73 -26.941 -27.11 -43.566 -36.271 l -130.145 0.068 c -16.301 8.997 -30.938 21.09 -42.887 35.453 L 234.742 296.592 z" style="stroke: none; stroke-width: 1; stroke-dasharray: none; stroke-linecap: butt; stroke-linejoin: miter; stroke-miterlimit: 10; fill: #E55E5E; fill-rule: nonzero; opacity: 1;" transform=" matrix(1 0 0 1 0 0) " stroke-linecap="round" />
  <path d="M 255.998 301.611 c 7.379 0 14.656 -1.718 21.256 -5.018 l 86.293 -43.146 c -4.971 -6.072 -10.427 -11.737 -16.282 -16.949 l -80.046 40.022 c -3.466 1.732 -7.346 2.649 -11.221 2.649 c -3.874 0 -7.755 -0.916 -11.221 -2.649 l -81.379 -40.689 c -5.907 5.181 -11.419 10.819 -16.45 16.866 l 87.793 43.896 C 241.342 299.892 248.619 301.611 255.998 301.611 z" style="stroke: none; stroke-width: 1; stroke-dasharray: none; stroke-linecap: butt; stroke-linejoin: miter; stroke-miterlimit: 10; fill: #8E4747; fill-rule: nonzero; opacity: 1;" transform=" matrix(1 0 0 1 0 0) " stroke-linecap="round" />
  <path d="M 321.273 226.222 c 1.877 -1.639 3.681 -3.346 5.421 -5.107 c -2.204 -1.37 -4.44 -2.687 -6.712 -3.94 l -130.145 0.068 c -2.27 1.253 -4.505 2.573 -6.708 3.944 c 1.718 1.735 3.499 3.419 5.352 5.037 c 18.385 16.052 41.964 24.893 66.395 24.893 C 279.306 251.118 302.887 242.276 321.273 226.222 z" style="stroke: none; stroke-width: 1; stroke-dasharray: none; stroke-linecap: butt; stroke-linejoin: miter; stroke-miterlimit: 10; fill: #8E4747; fill-rule: nonzero; opacity: 1;" transform=" matrix(1 0 0 1 0 0) " stroke-linecap="round" />
  <path d="M 379.425 245.508 l -102.171 51.085 c -6.6 3.3 -13.878 5.018 -21.256 5.018 c -7.379 0 -14.656 -1.718 -21.256 -5.018 l -102.171 -51.085 l -33.662 40.073 l 118.523 28.22 c 7.925 1.887 14.576 6.948 19.137 13.698 c 3.169 4.69 8.534 7.774 14.622 7.774 h 9.617 c 6.121 0 11.512 -3.118 14.674 -7.853 c 4.603 -6.893 11.264 -12.152 19.233 -14.43 l 118.372 -33.82 l 0 0 L 379.425 245.508 z" style="stroke: none; stroke-width: 1; stroke-dasharray: none; stroke-linecap: butt; stroke-linejoin: miter; stroke-miterlimit: 10; fill: #FFFFFF; fill-rule: nonzero; opacity: 1;" transform=" matrix(1 0 0 1 0 0) " stroke-linecap="round" />
  <path d="M 413.087 279.17 l -118.372 33.82 c -7.97 2.277 -14.631 7.537 -19.233 14.43 c -3.162 4.735 -8.553 7.853 -14.674 7.853 h -9.617 c -6.086 0 -11.453 -3.083 -14.622 -7.774 c -4.56 -6.75 -11.212 -11.811 -19.137 -13.698 l -118.523 -28.22 v 168.31 l 118.523 28.22 c 7.925 1.887 14.576 6.948 19.137 13.698 c 3.169 4.69 8.534 7.774 14.622 7.774 h 9.617 c 6.086 0 11.453 -3.083 14.622 -7.774 c 4.56 -6.75 11.212 -11.811 19.137 -13.698 l 118.523 -28.22 V 279.17 H 413.087 z" style="stroke: none; stroke-width: 1; stroke-dasharray: none; stroke-linecap: butt; stroke-linejoin: miter; stroke-miterlimit: 10; fill: #85B3C1; fill-rule: nonzero; opacity: 1;" transform=" matrix(1 0 0 1 0 0) " stroke-linecap="round" />
  <path d="M 413.087 307.221 h -5.61 c -27.842 0 -50.493 22.651 -50.493 50.493 c 0 27.842 22.651 50.493 50.493 50.493 h 5.61 V 307.221 z" style="stroke: none; stroke-width: 1; stroke-dasharray: none; stroke-linecap: butt; stroke-linejoin: miter; stroke-miterlimit: 10; fill: #6495A0; fill-rule: nonzero; opacity: 1;" transform=" matrix(1 0 0 1 0 0) " stroke-linecap="round" />
  <path d="M 104.519 307.221 h -5.61 v 100.986 h 5.61 c 27.842 0 50.493 -22.651 50.493 -50.493 C 155.012 329.872 132.361 307.221 104.519 307.221 z" style="stroke: none; stroke-width: 1; stroke-dasharray: none; stroke-linecap: butt; stroke-linejoin: miter; stroke-miterlimit: 10; fill: #6495A0; fill-rule: nonzero; opacity: 1;" transform=" matrix(1 0 0 1 0 0) " stroke-linecap="round" />
  <path d="M 278.439 323.547 c -1.061 1.221 -2.051 2.513 -2.958 3.871 c -3.162 4.735 -8.553 7.853 -14.674 7.853 h -9.617 c -6.086 0 -11.453 -3.083 -14.622 -7.774 c -0.92 -1.361 -1.929 -2.65 -3.012 -3.861 v 168.31 c 1.083 1.212 2.092 2.5 3.012 3.861 c 3.169 4.69 8.534 7.774 14.622 7.774 h 9.617 c 6.086 0 11.453 -3.083 14.622 -7.774 c 0.92 -1.361 1.929 -2.65 3.012 -3.861 v -168.4 H 278.439 z" style="stroke: none; stroke-width: 1; stroke-dasharray: none; stroke-linecap: butt; stroke-linejoin: miter; stroke-miterlimit: 10; fill: #6495A0; fill-rule: nonzero; opacity: 1;" transform=" matrix(1 0 0 1 0 0) " stroke-linecap="round" />
  <path d="M 407.477 385.766 h 28.052 c 5.164 0 9.35 -4.186 9.35 -9.35 v -37.402 c 0 -5.164 -4.186 -9.35 -9.35 -9.35 h -28.052 c -15.492 0 -28.052 12.559 -28.052 28.052 l 0 0 C 379.425 373.207 391.985 385.766 407.477 385.766 z" style="stroke: none; stroke-width: 1; stroke-dasharray: none; stroke-linecap: butt; stroke-linejoin: miter; stroke-miterlimit: 10; fill: #FFEBCC; fill-rule: nonzero; opacity: 1;" transform=" matrix(1 0 0 1 0 0) " stroke-linecap="round" />
  <path d="M 104.519 385.766 H 76.467 c -5.164 0 -9.35 -4.186 -9.35 -9.35 v -37.402 c 0 -5.164 4.186 -9.35 9.35 -9.35 h 28.052 c 15.492 0 28.052 12.559 28.052 28.052 l 0 0 C 132.571 373.207 120.011 385.766 104.519 385.766 z" style="stroke: none; stroke-width: 1; stroke-dasharray: none; stroke-linecap: butt; stroke-linejoin: miter; stroke-miterlimit: 10; fill: #FFEBCC; fill-rule: nonzero; opacity: 1;" transform=" matrix(1 0 0 1 0 0) " stroke-linecap="round" />
  <path d="M 289.661 21.094 L 289.661 21.094 c 0 0 -22.184 -7.946 -33.663 -10.596 C 204.863 -1.302 137.849 37.873 143.791 90.014 c 1.266 11.107 7.639 33.076 11.221 43.287 c 5.946 16.949 33.662 56.103 33.662 56.103 h 2.886 c -8.88 -12.725 -14.107 -28.189 -14.107 -44.883 v -11.221 h 56.744 l 0 0 c 37.925 -2.102 66.683 -25.555 66.683 -63.945 v -2.701 l 1.124 -0.679 l 32.538 33.65 v 44.895 c 0 16.694 -5.227 32.157 -14.107 44.883 h 2.886 c 0 0 27.716 -39.155 33.662 -56.103 c 5 -14.252 10.193 -27.96 11.221 -43.287 C 370.912 49.651 326.843 5.159 289.661 21.094 z" style="stroke: none; stroke-width: 1; stroke-dasharray: none; stroke-linecap: butt; stroke-linejoin: miter; stroke-miterlimit: 10; fill: #625656; fill-rule: nonzero; opacity: 1;" transform=" matrix(1 0 0 1 0 0) " stroke-linecap="round" />
  <path d="M 302.005 65.977 l -1.124 0.679 v 2.701 c 0 38.39 -28.757 61.844 -66.683 63.945 l 0 0 h -56.744 v 11.221 c 0 23.612 10.418 44.79 26.909 59.188 c 13.806 12.054 31.868 19.357 51.635 19.357 l 0 0 c 19.769 0 37.832 -7.304 51.639 -19.359 c 16.489 -14.398 26.906 -35.575 26.906 -59.186 V 99.626 L 302.005 65.977 z" style="stroke: none; stroke-width: 1; stroke-dasharray: none; stroke-linecap: butt; stroke-linejoin: miter; stroke-miterlimit: 10; fill: #FFEBCC; fill-rule: nonzero; opacity: 1;" transform=" matrix(1 0 0 1 0 0) " stroke-linecap="round" />
  <path d="M 231.084 155.742 c 81.018 0 81.018 -56.103 81.018 -56.103 l 22.441 25.638 v -25.65 l -32.538 -33.65 l -1.124 0.679 v 2.701 c 0 38.39 -28.757 61.844 -66.683 63.945 h -56.744 v 11.221 c 0 3.813 0.3 7.553 0.825 11.221 h 52.806 V 155.742 z" style="stroke: none; stroke-width: 1; stroke-dasharray: none; stroke-linecap: butt; stroke-linejoin: miter; stroke-miterlimit: 10; fill: #E0C88C; fill-rule: nonzero; opacity: 1;" transform=" matrix(1 0 0 1 0 0) " stroke-linecap="round" />
  <path d="M 177.453 108.054 V 91.223 c 3.927 0 8.169 -1.294 12.608 -3.845 l 8.387 14.592 C 191.425 106.007 184.363 108.054 177.453 108.054 z M 213.454 89.972 l -12.205 -11.589 c 8.319 -8.762 12.671 -18.519 12.671 -23.628 h 16.831 C 230.752 65.242 224.124 78.736 213.454 89.972 z" style="stroke: none; stroke-width: 1; stroke-dasharray: none; stroke-linecap: butt; stroke-linejoin: miter; stroke-miterlimit: 10; fill: #FFFFFF; fill-rule: nonzero; opacity: 1;" transform=" matrix(1 0 0 1 0 0) " stroke-linecap="round" />
  <circle cx="222.141" cy="166.961" r="11.221" style="stroke: none; stroke-width: 1; stroke-dasharray: none; stroke-linecap: butt; stroke-linejoin: miter; stroke-miterlimit: 10; fill: rgb(0,0,0); fill-rule: nonzero; opacity: 1;" transform="  matrix(1 0 0 1 0 0) "/>
  <circle cx="290.971" cy="166.961" r="11.221" style="stroke: none; stroke-width: 1; stroke-dasharray: none; stroke-linecap: butt; stroke-linejoin: miter; stroke-miterlimit: 10; fill: rgb(0,0,0); fill-rule: nonzero; opacity: 1;" transform="  matrix(1 0 0 1 0 0) "/>
  <path d="M 140.986 357.714 c 0 -20.107 -16.359 -36.467 -36.467 -36.467 H 76.467 c -9.796 0 -17.766 7.97 -17.766 17.766 v 37.402 c 0 9.796 7.97 17.766 17.766 17.766 h 28.052 C 124.628 394.181 140.986 377.822 140.986 357.714 z M 75.533 376.415 v -37.402 c 0 -0.515 0.42 -0.935 0.935 -0.935 h 28.052 c 10.827 0 19.636 8.809 19.636 19.636 c 0 10.827 -8.809 19.636 -19.636 19.636 H 76.467 C 75.952 377.35 75.533 376.931 75.533 376.415 z" style="stroke: none; stroke-width: 1; stroke-dasharray: none; stroke-linecap: butt; stroke-linejoin: miter; stroke-miterlimit: 10; fill: rgb(0,0,0); fill-rule: nonzero; opacity: 1;" transform=" matrix(1 0 0 1 0 0) " stroke-linecap="round" />
  <path d="M 435.529 321.247 h -28.052 c -20.109 0 -36.467 16.36 -36.467 36.467 c 0 20.107 16.359 36.467 36.467 36.467 h 28.052 c 9.796 0 17.766 -7.97 17.766 -17.766 v -37.402 C 453.294 329.217 445.325 321.247 435.529 321.247 z M 436.463 376.415 c 0 0.515 -0.42 0.935 -0.935 0.935 h -28.052 c -10.827 0 -19.636 -8.809 -19.636 -19.636 c 0 -10.827 8.809 -19.636 19.636 -19.636 h 28.052 c 0.515 0 0.935 0.42 0.935 0.935 V 376.415 z" style="stroke: none; stroke-width: 1; stroke-dasharray: none; stroke-linecap: butt; stroke-linejoin: miter; stroke-miterlimit: 10; fill: rgb(0,0,0); fill-rule: nonzero; opacity: 1;" transform=" matrix(1 0 0 1 0 0) " stroke-linecap="round" />
  <path d="M 404.672 447.244 l -112.056 26.681 c -1.97 0.469 -3.892 1.104 -5.761 1.881 V 326.954 c 2.982 -2.778 6.453 -4.809 10.172 -5.872 l 107.645 -30.756 v 11.285 h 16.831 v -33.598 l -5.966 1.704 l -34.451 -34.45 l -15.432 7.716 c -11.862 -13.262 -26.044 -24.601 -41.613 -33.18 l -8.122 14.742 c 12.573 6.928 24.129 15.873 34.061 26.274 l -76.49 38.244 c -5.403 2.702 -11.452 4.129 -17.493 4.129 c -6.041 0 -12.089 -1.427 -17.493 -4.129 l -77.914 -38.957 c 9.768 -10.063 21.065 -18.737 33.311 -25.497 l -8.133 -14.736 c -15.239 8.411 -29.165 19.473 -40.884 32.379 l -14.488 -7.244 l -34.591 41.18 l -5.312 -1.265 v 26.684 h 16.831 v -5.375 l 108.158 25.751 c 3.511 0.836 6.806 2.607 9.659 5.13 v 148.687 c -1.868 -0.776 -3.79 -1.412 -5.761 -1.881 l -112.057 -26.679 v -33.427 H 90.493 v 46.721 l 124.989 29.759 c 5.539 1.318 10.55 4.949 14.112 10.222 c 4.856 7.187 12.928 11.478 21.594 11.478 h 9.618 c 8.666 0 16.738 -4.291 21.594 -11.478 c 3.563 -5.274 8.575 -8.904 14.112 -10.222 l 124.989 -29.759 v -46.721 h -16.831 V 447.244 z M 114.124 280.553 l 20.621 -24.55 l 96.233 48.116 c 7.729 3.864 16.381 5.907 25.021 5.907 s 17.292 -2.042 25.021 -5.907 l 96.746 -48.372 l 19.259 19.26 L 292.404 304.9 c -9.563 2.733 -18.06 9.071 -23.92 17.848 c -1.719 2.574 -4.588 4.111 -7.675 4.111 h -9.618 c -3.067 0 -5.926 -1.522 -7.647 -4.07 c -5.929 -8.777 -14.511 -14.875 -24.16 -17.173 L 114.124 280.553 z M 260.807 495.167 h -9.618 c -3.067 0 -5.926 -1.522 -7.647 -4.07 c -0.503 -0.743 -1.03 -1.46 -1.569 -2.164 V 342.002 c 2.904 1.099 6.019 1.686 9.217 1.686 h 9.618 c 3.2 0 6.314 -0.588 9.217 -1.685 v 146.931 c -0.539 0.705 -1.067 1.421 -1.569 2.164 C 266.734 493.646 263.875 495.167 260.807 495.167 z" style="stroke: none; stroke-width: 1; stroke-dasharray: none; stroke-linecap: butt; stroke-linejoin: miter; stroke-miterlimit: 10; fill: rgb(0,0,0); fill-rule: nonzero; opacity: 1;" transform=" matrix(1 0 0 1 0 0) " stroke-linecap="round" />
  <path d="M 253.193 69.356 h -16.831 c 0 38.36 -32.404 55.53 -64.519 55.53 h -2.805 v 19.636 c 0 25.114 10.858 48.998 29.791 65.528 c 15.829 13.82 36.132 21.433 57.169 21.433 s 41.343 -7.613 57.173 -21.436 c 18.93 -16.529 29.787 -40.412 29.787 -65.524 V 96.222 l -39.562 -40.914 l -10.931 6.594 v 7.452 c 0 31.696 -22.956 53.472 -58.506 55.53 h -7.611 C 243.202 112.036 253.193 92.619 253.193 69.356 z M 234.199 141.716 l 0.466 -0.013 c 39.019 -2.162 66.847 -24.648 73.237 -57.524 l 18.227 18.85 v 41.492 c 0 20.252 -8.758 39.514 -24.026 52.847 c -12.764 11.144 -29.137 17.282 -46.103 17.282 c -16.966 0 -33.338 -6.137 -46.1 -17.28 c -15.27 -13.334 -24.029 -32.596 -24.029 -52.849 v -2.805 h 48.329 V 141.716 z" style="stroke: none; stroke-width: 1; stroke-dasharray: none; stroke-linecap: butt; stroke-linejoin: miter; stroke-miterlimit: 10; fill: rgb(0,0,0); fill-rule: nonzero; opacity: 1;" transform=" matrix(1 0 0 1 0 0) " stroke-linecap="round" />
  <path d="M 147.071 136.086 l 15.882 -5.571 c -3.759 -10.715 -9.686 -31.669 -10.8 -41.455 c -1.958 -17.182 5.478 -34.244 20.939 -48.046 c 21.835 -19.491 54.396 -28.458 81.013 -22.316 c 10.862 2.507 32.5 10.24 32.716 10.317 l 3.113 1.115 l 3.04 -1.303 c 16.007 -6.858 31.106 1.122 38.681 6.489 c 17.864 12.658 29.441 34.919 28.153 54.132 c -0.873 13.026 -5.127 25.083 -9.631 37.846 l -1.134 3.219 l 15.882 5.572 l 1.123 -3.19 c 4.684 -13.272 9.525 -26.995 10.553 -42.32 c 1.686 -25.146 -12.465 -52.872 -35.216 -68.991 c -16.694 -11.829 -35.396 -15.195 -51.856 -9.461 c -6.54 -2.288 -22.253 -7.659 -31.639 -9.825 c -31.698 -7.315 -70.283 3.198 -96.006 26.16 c -19.654 17.544 -29.049 39.742 -26.455 62.508 C 136.854 103.456 143.714 126.516 147.071 136.086 z" style="stroke: none; stroke-width: 1; stroke-dasharray: none; stroke-linecap: butt; stroke-linejoin: miter; stroke-miterlimit: 10; fill: rgb(0,0,0); fill-rule: nonzero; opacity: 1;" transform=" matrix(1 0 0 1 0 0) " stroke-linecap="round" />
</g>
</svg>