<?xml version="1.0" encoding="UTF-8" standalone="no" ?>
<!DOCTYPE svg PUBLIC "-//W3C//DTD SVG 1.1//EN" "http://www.w3.org/Graphics/SVG/1.1/DTD/svg11.dtd">
<svg xmlns="http://www.w3.org/2000/svg" xmlns:xlink="http://www.w3.org/1999/xlink" version="1.1" width="229.86909999999997" height="261.11" xml:space="preserve">
<desc>Created with Fabric.js 1.6.0-rc.1</desc>
<defs></defs>
<g style="stroke: none; stroke-width: 1; stroke-dasharray: none; stroke-linecap: butt; stroke-linejoin: miter; stroke-miterlimit: 10; fill: none; fill-rule: nonzero; opacity: 1;" transform="translate(10 10) scale(0.47 0.47)" >
  <path d="M 256.538 8.084 L 256.538 8.084 c -61.912 0 -112.101 50.189 -112.101 112.101 v 87.669 h 224.202 v -87.669 C 368.639 58.273 318.451 8.084 256.538 8.084 z" style="stroke: none; stroke-width: 1; stroke-dasharray: none; stroke-linecap: butt; stroke-linejoin: miter; stroke-miterlimit: 10; fill: #625656; fill-rule: nonzero; opacity: 1;" transform=" matrix(1 0 0 1 0 0) " stroke-linecap="round" />
  <path d="M 254.919 239.832 L 254.919 239.832 c -18.989 0 -36.34 -7.015 -49.603 -18.595 c -15.842 -13.832 -25.85 -34.176 -25.85 -56.858 v -5.389 l 110.075 -72.207 l 40.831 32.325 v 45.272 c 0 22.681 -10.007 43.024 -25.847 56.856 C 291.262 232.816 273.91 239.832 254.919 239.832 z" style="stroke: none; stroke-width: 1; stroke-dasharray: none; stroke-linecap: butt; stroke-linejoin: miter; stroke-miterlimit: 10; fill: #FFEBCC; fill-rule: nonzero; opacity: 1;" transform=" matrix(1 0 0 1 0 0) " stroke-linecap="round" />
  <path d="M 289.541 86.782 l -110.075 72.207 v 5.389 c 0 7.518 1.121 14.77 3.168 21.624 l 106.907 -70.129 l 40.831 32.325 v -29.091 L 289.541 86.782 z" style="stroke: none; stroke-width: 1; stroke-dasharray: none; stroke-linecap: butt; stroke-linejoin: miter; stroke-miterlimit: 10; fill: #E0C88C; fill-rule: nonzero; opacity: 1;" transform=" matrix(1 0 0 1 0 0) " stroke-linecap="round" />
  <path d="M 235.58 305.074 c 6.34 3.17 13.331 4.82 20.42 4.82 c 7.088 0 14.079 -1.65 20.42 -4.82 l 82.896 -41.447 c -11.583 -14.151 -25.88 -26.043 -41.851 -34.843 l -125.022 0.066 c -15.66 8.643 -29.72 20.26 -41.198 34.057 L 235.58 305.074 z" style="stroke: none; stroke-width: 1; stroke-dasharray: none; stroke-linecap: butt; stroke-linejoin: miter; stroke-miterlimit: 10; fill: #E55E5E; fill-rule: nonzero; opacity: 1;" transform=" matrix(1 0 0 1 0 0) " stroke-linecap="round" />
  <path d="M 255.999 309.895 c 7.088 0 14.079 -1.65 20.42 -4.82 l 82.896 -41.447 c -4.775 -5.832 -10.017 -11.275 -15.641 -16.282 l -76.895 38.446 c -3.33 1.664 -7.057 2.545 -10.779 2.545 s -7.449 -0.88 -10.779 -2.545 l -78.175 -39.088 c -5.674 4.977 -10.97 10.393 -15.802 16.202 l 84.337 42.168 C 241.92 308.244 248.911 309.895 255.999 309.895 z" style="stroke: none; stroke-width: 1; stroke-dasharray: none; stroke-linecap: butt; stroke-linejoin: miter; stroke-miterlimit: 10; fill: #625656; fill-rule: nonzero; opacity: 1;" transform=" matrix(1 0 0 1 0 0) " stroke-linecap="round" />
  <path d="M 318.705 237.473 c 1.803 -1.575 3.537 -3.214 5.207 -4.905 c -2.117 -1.316 -4.265 -2.582 -6.448 -3.785 l -125.022 0.066 c -2.181 1.204 -4.328 2.472 -6.444 3.789 c 1.65 1.666 3.361 3.284 5.142 4.839 c 17.661 15.42 40.312 23.913 63.781 23.913 C 278.389 261.389 301.043 252.896 318.705 237.473 z" style="stroke: none; stroke-width: 1; stroke-dasharray: none; stroke-linecap: butt; stroke-linejoin: miter; stroke-miterlimit: 10; fill: #625656; fill-rule: nonzero; opacity: 1;" transform=" matrix(1 0 0 1 0 0) " stroke-linecap="round" />
  <path d="M 374.568 256 l -98.149 49.074 c -6.34 3.17 -13.331 4.82 -20.42 4.82 c -7.088 0 -14.079 -1.65 -20.42 -4.82 L 137.431 256 l -32.337 38.496 l 113.857 27.109 c 7.613 1.813 14.002 6.674 18.383 13.159 c 3.044 4.506 8.198 7.468 14.046 7.468 h 9.239 c 5.88 0 11.059 -2.995 14.097 -7.544 c 4.422 -6.621 10.821 -11.674 18.476 -13.862 l 113.712 -32.489 l 0 0 L 374.568 256 z" style="stroke: none; stroke-width: 1; stroke-dasharray: none; stroke-linecap: butt; stroke-linejoin: miter; stroke-miterlimit: 10; fill: #FFFFFF; fill-rule: nonzero; opacity: 1;" transform=" matrix(1 0 0 1 0 0) " stroke-linecap="round" />
  <path d="M 406.905 288.337 l -113.712 32.489 c -7.656 2.187 -14.055 7.24 -18.476 13.862 c -3.038 4.549 -8.217 7.544 -14.097 7.544 h -9.239 c -5.846 0 -11.002 -2.962 -14.046 -7.468 c -4.381 -6.485 -10.77 -11.346 -18.383 -13.159 l -113.857 -27.109 V 456.18 l 113.857 27.109 c 7.613 1.813 14.002 6.674 18.383 13.159 c 3.044 4.506 8.198 7.468 14.046 7.468 h 9.239 c 5.846 0 11.002 -2.962 14.046 -7.468 c 4.381 -6.485 10.77 -11.346 18.384 -13.159 l 113.857 -27.109 V 288.337 H 406.905 z" style="stroke: none; stroke-width: 1; stroke-dasharray: none; stroke-linecap: butt; stroke-linejoin: miter; stroke-miterlimit: 10; fill: #85B3C1; fill-rule: nonzero; opacity: 1;" transform=" matrix(1 0 0 1 0 0) " stroke-linecap="round" />
  <path d="M 406.905 315.284 h -5.389 c -26.746 0 -48.505 21.759 -48.505 48.505 s 21.759 48.505 48.505 48.505 h 5.389 V 315.284 z" style="stroke: none; stroke-width: 1; stroke-dasharray: none; stroke-linecap: butt; stroke-linejoin: miter; stroke-miterlimit: 10; fill: #6495A0; fill-rule: nonzero; opacity: 1;" transform=" matrix(1 0 0 1 0 0) " stroke-linecap="round" />
  <path d="M 110.484 315.284 h -5.389 v 97.01 h 5.389 c 26.746 0 48.505 -21.759 48.505 -48.505 S 137.229 315.284 110.484 315.284 z" style="stroke: none; stroke-width: 1; stroke-dasharray: none; stroke-linecap: butt; stroke-linejoin: miter; stroke-miterlimit: 10; fill: #6495A0; fill-rule: nonzero; opacity: 1;" transform=" matrix(1 0 0 1 0 0) " stroke-linecap="round" />
  <path d="M 277.557 330.969 c -1.02 1.173 -1.97 2.414 -2.841 3.719 c -3.038 4.549 -8.217 7.544 -14.097 7.544 h -9.239 c -5.846 0 -11.002 -2.962 -14.046 -7.468 c -0.884 -1.307 -1.853 -2.546 -2.893 -3.709 v 161.684 c 1.04 1.164 2.009 2.402 2.893 3.709 c 3.044 4.506 8.198 7.468 14.046 7.468 h 9.239 c 5.846 0 11.002 -2.962 14.046 -7.468 c 0.884 -1.307 1.853 -2.546 2.893 -3.709 v -161.77 H 277.557 z" style="stroke: none; stroke-width: 1; stroke-dasharray: none; stroke-linecap: butt; stroke-linejoin: miter; stroke-miterlimit: 10; fill: #6495A0; fill-rule: nonzero; opacity: 1;" transform=" matrix(1 0 0 1 0 0) " stroke-linecap="round" />
  <path d="M 401.515 390.737 h 26.947 c 4.96 0 8.982 -4.022 8.982 -8.982 v -35.929 c 0 -4.96 -4.022 -8.982 -8.982 -8.982 h -26.947 c -14.883 0 -26.947 12.065 -26.947 26.947 l 0 0 C 374.568 378.672 386.633 390.737 401.515 390.737 z" style="stroke: none; stroke-width: 1; stroke-dasharray: none; stroke-linecap: butt; stroke-linejoin: miter; stroke-miterlimit: 10; fill: #FFDAAA; fill-rule: nonzero; opacity: 1;" transform=" matrix(1 0 0 1 0 0) " stroke-linecap="round" />
  <path d="M 110.484 390.737 H 83.536 c -4.96 0 -8.982 -4.022 -8.982 -8.982 v -35.929 c 0 -4.96 4.022 -8.982 8.982 -8.982 h 26.947 c 14.882 0 26.947 12.065 26.947 26.947 l 0 0 C 137.431 378.672 125.366 390.737 110.484 390.737 z" style="stroke: none; stroke-width: 1; stroke-dasharray: none; stroke-linecap: butt; stroke-linejoin: miter; stroke-miterlimit: 10; fill: #FFEBCC; fill-rule: nonzero; opacity: 1;" transform=" matrix(1 0 0 1 0 0) " stroke-linecap="round" />
  <path d="M 184.558 122.893 l -8.022 -14.037 l 11.813 -6.751 l 8.022 14.037 L 184.558 122.893 z M 210.409 108.12 l -8.022 -14.037 l 49.601 -28.343 l 8.022 14.037 L 210.409 108.12 z" style="stroke: none; stroke-width: 1; stroke-dasharray: none; stroke-linecap: butt; stroke-linejoin: miter; stroke-miterlimit: 10; fill: #FFFFFF; fill-rule: nonzero; opacity: 1;" transform=" matrix(1 0 0 1 0 0) " stroke-linecap="round" />
  <path d="M 200.001 227.327 c 15.206 13.276 34.71 20.589 54.919 20.589 c 20.211 0 39.716 -7.314 54.923 -20.592 c 3.976 -3.472 7.557 -7.299 10.764 -11.386 h 56.117 v -95.753 C 376.724 53.915 322.808 0 256.538 0 S 136.353 53.915 136.353 120.185 v 95.753 h 52.879 C 192.44 220.026 196.022 223.854 200.001 227.327 z M 299.208 215.146 c -12.261 10.706 -27.99 16.602 -44.289 16.602 c -16.298 0 -32.025 -5.895 -44.285 -16.6 c -14.669 -12.809 -23.083 -31.313 -23.083 -50.769 v -1.024 l 101.546 -66.613 l 33.191 26.276 v 41.361 C 322.288 183.833 313.876 202.337 299.208 215.146 z M 152.522 199.769 v -79.584 c 0 -57.355 46.662 -104.017 104.017 -104.017 S 360.555 62.83 360.555 120.185 v 79.584 h -29.989 c 5.129 -10.96 7.89 -23.016 7.89 -35.391 v -49.182 l -48.471 -38.373 l -118.603 77.8 v 9.755 c 0 12.375 2.762 24.432 7.89 35.391 L 152.522 199.769 L 152.522 199.769 z" style="stroke: none; stroke-width: 1; stroke-dasharray: none; stroke-linecap: butt; stroke-linejoin: miter; stroke-miterlimit: 10; fill: rgb(0,0,0); fill-rule: nonzero; opacity: 1;" transform=" matrix(1 0 0 1 0 0) " stroke-linecap="round" />
  <circle cx="223.47899999999998" cy="180.549" r="10.779" style="stroke: none; stroke-width: 1; stroke-dasharray: none; stroke-linecap: butt; stroke-linejoin: miter; stroke-miterlimit: 10; fill: rgb(0,0,0); fill-rule: nonzero; opacity: 1;" transform="  matrix(1 0 0 1 0 0) "/>
  <circle cx="289.599" cy="180.549" r="10.779" style="stroke: none; stroke-width: 1; stroke-dasharray: none; stroke-linecap: butt; stroke-linejoin: miter; stroke-miterlimit: 10; fill: rgb(0,0,0); fill-rule: nonzero; opacity: 1;" transform="  matrix(1 0 0 1 0 0) "/>
  <path d="M 145.515 363.789 c 0 -19.316 -15.716 -35.032 -35.032 -35.032 H 83.536 c -9.41 0 -17.066 7.656 -17.066 17.066 v 35.929 c 0 9.41 7.656 17.066 17.066 17.066 h 26.947 C 129.8 398.821 145.515 383.105 145.515 363.789 z M 82.638 381.755 v -35.929 c 0 -0.495 0.403 -0.898 0.898 -0.898 h 26.947 c 10.401 0 18.863 8.463 18.863 18.863 c 0 10.401 -8.463 18.863 -18.863 18.863 H 83.536 C 83.042 382.653 82.638 382.249 82.638 381.755 z" style="stroke: none; stroke-width: 1; stroke-dasharray: none; stroke-linecap: butt; stroke-linejoin: miter; stroke-miterlimit: 10; fill: rgb(0,0,0); fill-rule: nonzero; opacity: 1;" transform=" matrix(1 0 0 1 0 0) " stroke-linecap="round" />
  <path d="M 428.463 328.758 h -26.947 c -19.316 0 -35.032 15.716 -35.032 35.032 s 15.716 35.032 35.032 35.032 h 26.947 c 9.41 0 17.066 -7.656 17.066 -17.066 v -35.929 C 445.529 336.414 437.873 328.758 428.463 328.758 z M 429.36 381.755 c 0 0.495 -0.403 0.898 -0.898 0.898 h -26.947 c -10.401 0 -18.863 -8.463 -18.863 -18.863 s 8.463 -18.863 18.863 -18.863 h 26.947 c 0.495 0 0.898 0.403 0.898 0.898 V 381.755 z" style="stroke: none; stroke-width: 1; stroke-dasharray: none; stroke-linecap: butt; stroke-linejoin: miter; stroke-miterlimit: 10; fill: rgb(0,0,0); fill-rule: nonzero; opacity: 1;" transform=" matrix(1 0 0 1 0 0) " stroke-linecap="round" />
  <path d="M 398.82 449.796 l -107.645 25.63 c -1.893 0.451 -3.739 1.062 -5.534 1.808 V 334.24 c 2.865 -2.669 6.199 -4.62 9.771 -5.641 l 103.408 -29.545 v 10.84 h 16.168 v -32.275 l -5.731 1.637 l -33.094 -33.094 l -14.825 7.413 c -11.394 -12.74 -25.018 -23.632 -39.974 -31.873 l -7.803 14.161 c 12.078 6.655 23.18 15.248 32.721 25.24 l -73.479 36.74 c -5.19 2.596 -11.002 3.967 -16.804 3.967 c -5.802 0 -11.614 -1.371 -16.804 -3.967 l -74.846 -37.423 c 9.383 -9.667 20.235 -18 31.999 -24.493 l -7.813 -14.156 c -14.639 8.079 -28.018 18.707 -39.274 31.105 l -13.918 -6.959 l -33.229 39.559 l -5.105 -1.215 v 25.633 h 16.168 v -5.163 l 103.9 24.738 c 3.373 0.803 6.539 2.504 9.279 4.928 v 142.835 c -1.794 -0.746 -3.641 -1.357 -5.534 -1.808 l -107.645 -25.629 v -32.112 H 97.01 v 44.881 l 120.069 28.588 c 5.32 1.267 10.134 4.755 13.558 9.82 c 4.665 6.904 12.42 11.026 20.744 11.026 h 9.239 c 8.325 0 16.079 -4.122 20.745 -11.026 c 3.422 -5.066 8.237 -8.553 13.557 -9.82 l 120.068 -28.588 v -44.881 H 398.82 V 449.796 z M 119.709 289.666 l 19.81 -23.583 l 92.445 46.222 c 7.425 3.712 15.736 5.674 24.036 5.674 c 8.3 0 16.611 -1.962 24.035 -5.674 l 92.937 -46.468 l 18.502 18.502 l -100.503 28.715 c -9.188 2.626 -17.349 8.714 -22.979 17.145 c -1.651 2.473 -4.408 3.949 -7.374 3.949 h -9.239 c -2.947 0 -5.693 -1.462 -7.347 -3.91 c -5.697 -8.431 -13.939 -14.29 -23.209 -16.497 L 119.709 289.666 z M 260.619 495.832 h -9.239 c -2.947 0 -5.693 -1.462 -7.347 -3.91 c -0.483 -0.714 -0.99 -1.402 -1.507 -2.078 V 348.696 c 2.79 1.055 5.783 1.62 8.854 1.62 h 9.239 c 3.074 0 6.065 -0.565 8.854 -1.619 v 141.147 c -0.517 0.676 -1.025 1.365 -1.507 2.078 C 266.312 494.37 263.566 495.832 260.619 495.832 z" style="stroke: none; stroke-width: 1; stroke-dasharray: none; stroke-linecap: butt; stroke-linejoin: miter; stroke-miterlimit: 10; fill: rgb(0,0,0); fill-rule: nonzero; opacity: 1;" transform=" matrix(1 0 0 1 0 0) " stroke-linecap="round" />
</g>
</svg>