<?xml version="1.0" encoding="UTF-8" standalone="no" ?>
<!DOCTYPE svg PUBLIC "-//W3C//DTD SVG 1.1//EN" "http://www.w3.org/Graphics/SVG/1.1/DTD/svg11.dtd">
<svg xmlns="http://www.w3.org/2000/svg" xmlns:xlink="http://www.w3.org/1999/xlink" version="1.1" width="616.7054687499999" height="225.20000000000002" xml:space="preserve">
<desc>Created with Fabric.js 1.6.0-rc.1</desc>
<defs></defs>
<g style="stroke: none; stroke-width: 1; stroke-dasharray: none; stroke-linecap: butt; stroke-linejoin: miter; stroke-miterlimit: 10; fill: none; fill-rule: nonzero; opacity: 1;" transform="translate(10 10) scale(0.4 0.4)" >
  <path d="M 182.553 0 H 36.585 C 16.38 0 0 16.38 0 36.585 v 145.969 c 0 20.205 16.38 36.585 36.585 36.585 h 145.969 c 20.205 0 36.585 -16.38 36.585 -36.585 V 36.585 C 219.138 16.38 202.758 0 182.553 0 z M 110.017 45.038 c 7.679 0 13.904 6.225 13.904 13.904 s -6.225 13.904 -13.904 13.904 s -13.904 -6.225 -13.904 -13.904 S 102.338 45.038 110.017 45.038 z M 110.017 174.286 c -7.679 0 -13.904 -6.225 -13.904 -13.904 c 0 -7.679 6.225 -13.904 13.904 -13.904 s 13.904 6.225 13.904 13.904 C 123.92 168.062 117.696 174.286 110.017 174.286 z M 172.957 123.473 H 46.18 c -7.678 0 -13.904 -6.225 -13.904 -13.904 s 6.226 -13.904 13.904 -13.904 h 126.778 c 7.678 0 13.904 6.225 13.904 13.904 S 180.636 123.473 172.957 123.473 z" style="stroke: none; stroke-width: 1; stroke-dasharray: none; stroke-linecap: butt; stroke-linejoin: miter; stroke-miterlimit: 10; fill: #F7B239; fill-rule: nonzero; opacity: 1;" transform=" matrix(1 0 0 1 0 0) " stroke-linecap="round" />
  <path d="M 23.636 182.553 V 36.585 C 23.636 16.38 40.016 0 60.221 0 H 36.585 C 16.38 0 0 16.38 0 36.585 v 145.969 c 0 20.205 16.38 36.585 36.585 36.585 h 23.636 C 40.016 219.138 23.636 202.758 23.636 182.553 z" style="stroke: none; stroke-width: 1; stroke-dasharray: none; stroke-linecap: butt; stroke-linejoin: miter; stroke-miterlimit: 10; fill: #E09B2D; fill-rule: nonzero; opacity: 1;" transform=" matrix(1 0 0 1 0 0) " stroke-linecap="round" />
  <path d="M 475.415 0 H 329.447 c -20.205 0 -36.585 16.38 -36.585 36.585 v 145.969 c 0 20.205 16.38 36.585 36.585 36.585 h 145.969 c 20.205 0 36.585 -16.38 36.585 -36.585 V 36.585 C 512 16.38 495.62 0 475.415 0 z M 465.819 123.473 h -49.484 v 49.484 c 0 7.679 -6.226 13.904 -13.904 13.904 c -7.678 0 -13.904 -6.225 -13.904 -13.904 v -49.484 h -49.486 c -7.678 0 -13.904 -6.225 -13.904 -13.904 s 6.226 -13.904 13.904 -13.904 h 49.486 V 46.181 c 0 -7.679 6.226 -13.904 13.904 -13.904 c 7.678 0 13.904 6.225 13.904 13.904 v 49.484 h 49.484 c 7.678 0 13.904 6.225 13.904 13.904 S 473.497 123.473 465.819 123.473 z" style="stroke: none; stroke-width: 1; stroke-dasharray: none; stroke-linecap: butt; stroke-linejoin: miter; stroke-miterlimit: 10; fill: #2BA5F7; fill-rule: nonzero; opacity: 1;" transform=" matrix(1 0 0 1 0 0) " stroke-linecap="round" />
  <path d="M 316.498 182.553 V 36.585 C 316.498 16.38 332.877 0 353.083 0 h -23.636 c -20.205 0 -36.585 16.38 -36.585 36.585 v 145.969 c 0 20.205 16.38 36.585 36.585 36.585 h 23.636 C 332.877 219.138 316.498 202.758 316.498 182.553 z" style="stroke: none; stroke-width: 1; stroke-dasharray: none; stroke-linecap: butt; stroke-linejoin: miter; stroke-miterlimit: 10; fill: #2197D8; fill-rule: nonzero; opacity: 1;" transform=" matrix(1 0 0 1 0 0) " stroke-linecap="round" />
  <path d="M 182.553 292.861 H 36.585 C 16.38 292.861 0 309.241 0 329.447 v 145.969 C 0 495.62 16.38 512 36.585 512 h 145.969 c 20.205 0 36.585 -16.38 36.585 -36.585 V 329.447 C 219.138 309.241 202.758 292.861 182.553 292.861 z M 164.223 437.421 c 5.429 5.429 5.429 14.233 0 19.664 c -2.715 2.715 -6.273 4.072 -9.831 4.072 s -7.116 -1.357 -9.831 -4.072 l -34.991 -34.991 l -34.991 34.991 c -2.715 2.715 -6.273 4.072 -9.831 4.072 s -7.116 -1.357 -9.831 -4.072 c -5.429 -5.429 -5.429 -14.233 0 -19.664 l 34.991 -34.991 l -34.991 -34.991 c -5.429 -5.429 -5.429 -14.233 0 -19.664 c 5.431 -5.429 14.232 -5.429 19.664 0 l 34.99 34.993 l 34.991 -34.991 c 5.431 -5.429 14.232 -5.429 19.664 0 c 5.429 5.429 5.429 14.233 0 19.664 l -34.991 34.991 L 164.223 437.421 z" style="stroke: none; stroke-width: 1; stroke-dasharray: none; stroke-linecap: butt; stroke-linejoin: miter; stroke-miterlimit: 10; fill: #F95428; fill-rule: nonzero; opacity: 1;" transform=" matrix(1 0 0 1 0 0) " stroke-linecap="round" />
  <path d="M 23.636 475.414 V 329.445 c 0 -20.205 16.38 -36.585 36.585 -36.585 H 36.585 C 16.38 292.861 0 309.241 0 329.445 v 145.969 c 0 20.205 16.38 36.585 36.585 36.585 h 23.636 C 40.016 512 23.636 495.62 23.636 475.414 z" style="stroke: none; stroke-width: 1; stroke-dasharray: none; stroke-linecap: butt; stroke-linejoin: miter; stroke-miterlimit: 10; fill: #E54728; fill-rule: nonzero; opacity: 1;" transform=" matrix(1 0 0 1 0 0) " stroke-linecap="round" />
  <path d="M 475.415 292.861 H 329.447 c -20.205 0 -36.585 16.38 -36.585 36.585 v 145.969 c 0 20.205 16.38 36.585 36.585 36.585 h 145.969 c 20.205 0 36.585 -16.38 36.585 -36.585 V 329.447 C 512 309.241 495.62 292.861 475.415 292.861 z M 465.819 416.335 H 339.042 c -7.678 0 -13.904 -6.225 -13.904 -13.904 s 6.226 -13.904 13.904 -13.904 h 126.778 c 7.678 0 13.904 6.225 13.904 13.904 S 473.497 416.335 465.819 416.335 z" style="stroke: none; stroke-width: 1; stroke-dasharray: none; stroke-linecap: butt; stroke-linejoin: miter; stroke-miterlimit: 10; fill: #9AD14B; fill-rule: nonzero; opacity: 1;" transform=" matrix(1 0 0 1 0 0) " stroke-linecap="round" />
  <path d="M 316.498 475.414 V 329.445 c 0 -20.205 16.38 -36.585 36.585 -36.585 h -23.636 c -20.205 0 -36.585 16.38 -36.585 36.585 v 145.969 c 0 20.205 16.38 36.585 36.585 36.585 h 23.636 C 332.877 512 316.498 495.62 316.498 475.414 z" style="stroke: none; stroke-width: 1; stroke-dasharray: none; stroke-linecap: butt; stroke-linejoin: miter; stroke-miterlimit: 10; fill: #90BC42; fill-rule: nonzero; opacity: 1;" transform=" matrix(1 0 0 1 0 0) " stroke-linecap="round" />
</g>
  <g transform="translate(413.28 71.98) scale(0.86 0.86)">
   <text font-family="ADAMCG PRO" font-size="40" font-weight="normal" style="stroke: none; stroke-width: 1; stroke-dasharray: none; stroke-linecap: butt; stroke-linejoin: miter; stroke-miterlimit: 10; fill: #07e6c8; fill-rule: nonzero; opacity: 1;" ><tspan x="-225.41" y="8.98" style="stroke: none; stroke-width: 0; stroke-dasharray: none; stroke-linecap: butt; stroke-linejoin: miter; stroke-miterlimit: 4; fill: #07e6c8; fill-rule: ; opacity: 1;">I</tspan><tspan x="-214.63" y="8.98" style="stroke: none; stroke-width: 0; stroke-dasharray: none; stroke-linecap: butt; stroke-linejoin: miter; stroke-miterlimit: 4; fill: #07e6c8; fill-rule: ; opacity: 1;">m</tspan><tspan x="-180.53" y="8.98" style="stroke: none; stroke-width: 0; stroke-dasharray: none; stroke-linecap: butt; stroke-linejoin: miter; stroke-miterlimit: 4; fill: #07e6c8; fill-rule: ; opacity: 1;">p</tspan><tspan x="-158.11" y="8.98" style="stroke: none; stroke-width: 0; stroke-dasharray: none; stroke-linecap: butt; stroke-linejoin: miter; stroke-miterlimit: 4; fill: #07e6c8; fill-rule: ; opacity: 1;">r</tspan><tspan x="-132.48" y="8.98" style="stroke: none; stroke-width: 0; stroke-dasharray: none; stroke-linecap: butt; stroke-linejoin: miter; stroke-miterlimit: 4; fill: #07e6c8; fill-rule: ; opacity: 1;">o</tspan><tspan x="-98.54" y="8.98" style="stroke: none; stroke-width: 0; stroke-dasharray: none; stroke-linecap: butt; stroke-linejoin: miter; stroke-miterlimit: 4; fill: #07e6c8; fill-rule: ; opacity: 1;">v</tspan><tspan x="-70.23" y="8.98" style="stroke: none; stroke-width: 0; stroke-dasharray: none; stroke-linecap: butt; stroke-linejoin: miter; stroke-miterlimit: 4; fill: #07e6c8; fill-rule: ; opacity: 1;">e</tspan><tspan x="-46.97" y="8.98" style="stroke: none; stroke-width: 0; stroke-dasharray: none; stroke-linecap: butt; stroke-linejoin: miter; stroke-miterlimit: 4; fill: #07e6c8; fill-rule: ; opacity: 1;"> </tspan><tspan x="-34.98" y="8.98" style="stroke: none; stroke-width: 0; stroke-dasharray: none; stroke-linecap: butt; stroke-linejoin: miter; stroke-miterlimit: 4; fill: #07e6c8; fill-rule: ; opacity: 1;">y</tspan><tspan x="-7.46" y="8.98" style="stroke: none; stroke-width: 0; stroke-dasharray: none; stroke-linecap: butt; stroke-linejoin: miter; stroke-miterlimit: 4; fill: #07e6c8; fill-rule: ; opacity: 1;">o</tspan><tspan x="26.48" y="8.98" style="stroke: none; stroke-width: 0; stroke-dasharray: none; stroke-linecap: butt; stroke-linejoin: miter; stroke-miterlimit: 4; fill: #07e6c8; fill-rule: ; opacity: 1;">u</tspan><tspan x="54.12" y="8.98" style="stroke: none; stroke-width: 0; stroke-dasharray: none; stroke-linecap: butt; stroke-linejoin: miter; stroke-miterlimit: 4; fill: #07e6c8; fill-rule: ; opacity: 1;">r</tspan><tspan x="79.75" y="8.98" style="stroke: none; stroke-width: 0; stroke-dasharray: none; stroke-linecap: butt; stroke-linejoin: miter; stroke-miterlimit: 4; fill: #07e6c8; fill-rule: ; opacity: 1;"> </tspan><tspan x="91.74" y="8.98" style="stroke: none; stroke-width: 0; stroke-dasharray: none; stroke-linecap: butt; stroke-linejoin: miter; stroke-miterlimit: 4; fill: #07e6c8; fill-rule: ; opacity: 1;">m</tspan><tspan x="125.84" y="8.98" style="stroke: none; stroke-width: 0; stroke-dasharray: none; stroke-linecap: butt; stroke-linejoin: miter; stroke-miterlimit: 4; fill: #07e6c8; fill-rule: ; opacity: 1;">a</tspan><tspan x="153.63" y="8.98" style="stroke: none; stroke-width: 0; stroke-dasharray: none; stroke-linecap: butt; stroke-linejoin: miter; stroke-miterlimit: 4; fill: #07e6c8; fill-rule: ; opacity: 1;">t</tspan><tspan x="176.99" y="8.98" style="stroke: none; stroke-width: 0; stroke-dasharray: none; stroke-linecap: butt; stroke-linejoin: miter; stroke-miterlimit: 4; fill: #07e6c8; fill-rule: ; opacity: 1;">h</tspan><tspan x="204.3" y="8.98" style="stroke: none; stroke-width: 0; stroke-dasharray: none; stroke-linecap: butt; stroke-linejoin: miter; stroke-miterlimit: 4; fill: #07e6c8; fill-rule: ; opacity: 1;">s</tspan></text>
 </g>
  <g transform="translate(372 106.57) scale(0.77 0.77)">
   <text font-family="Amerika Sans" font-size="40" font-weight="normal" style="stroke: none; stroke-width: 1; stroke-dasharray: none; stroke-linecap: butt; stroke-linejoin: miter; stroke-miterlimit: 10; fill: #ed1313; fill-rule: nonzero; opacity: 1;" ><tspan x="-141.05" y="8.98" style="stroke: none; stroke-width: 0; stroke-dasharray: none; stroke-linecap: butt; stroke-linejoin: miter; stroke-miterlimit: 4; fill: #ed1313; fill-rule: ; opacity: 1;">w</tspan><tspan x="-112.17" y="8.98" style="stroke: none; stroke-width: 0; stroke-dasharray: none; stroke-linecap: butt; stroke-linejoin: miter; stroke-miterlimit: 4; fill: #ed1313; fill-rule: ; opacity: 1;">i</tspan><tspan x="-101.05" y="8.98" style="stroke: none; stroke-width: 0; stroke-dasharray: none; stroke-linecap: butt; stroke-linejoin: miter; stroke-miterlimit: 4; fill: #ed1313; fill-rule: ; opacity: 1;">t</tspan><tspan x="-89.94" y="8.98" style="stroke: none; stroke-width: 0; stroke-dasharray: none; stroke-linecap: butt; stroke-linejoin: miter; stroke-miterlimit: 4; fill: #ed1313; fill-rule: ; opacity: 1;">h</tspan><tspan x="-69.94" y="8.98" style="stroke: none; stroke-width: 0; stroke-dasharray: none; stroke-linecap: butt; stroke-linejoin: miter; stroke-miterlimit: 4; fill: #ed1313; fill-rule: ; opacity: 1;"> </tspan><tspan x="-59.94" y="8.98" style="stroke: none; stroke-width: 0; stroke-dasharray: none; stroke-linecap: butt; stroke-linejoin: miter; stroke-miterlimit: 4; fill: #ed1313; fill-rule: ; opacity: 1;">e</tspan><tspan x="-42.19" y="8.98" style="stroke: none; stroke-width: 0; stroke-dasharray: none; stroke-linecap: butt; stroke-linejoin: miter; stroke-miterlimit: 4; fill: #ed1313; fill-rule: ; opacity: 1;">d</tspan><tspan x="-22.19" y="8.98" style="stroke: none; stroke-width: 0; stroke-dasharray: none; stroke-linecap: butt; stroke-linejoin: miter; stroke-miterlimit: 4; fill: #ed1313; fill-rule: ; opacity: 1;">u</tspan><tspan x="-2.19" y="8.98" style="stroke: none; stroke-width: 0; stroke-dasharray: none; stroke-linecap: butt; stroke-linejoin: miter; stroke-miterlimit: 4; fill: #ed1313; fill-rule: ; opacity: 1;">c</tspan><tspan x="15.57" y="8.98" style="stroke: none; stroke-width: 0; stroke-dasharray: none; stroke-linecap: butt; stroke-linejoin: miter; stroke-miterlimit: 4; fill: #ed1313; fill-rule: ; opacity: 1;">a</tspan><tspan x="33.32" y="8.98" style="stroke: none; stroke-width: 0; stroke-dasharray: none; stroke-linecap: butt; stroke-linejoin: miter; stroke-miterlimit: 4; fill: #ed1313; fill-rule: ; opacity: 1;">t</tspan><tspan x="44.43" y="8.98" style="stroke: none; stroke-width: 0; stroke-dasharray: none; stroke-linecap: butt; stroke-linejoin: miter; stroke-miterlimit: 4; fill: #ed1313; fill-rule: ; opacity: 1;">e</tspan><tspan x="62.19" y="8.98" style="stroke: none; stroke-width: 0; stroke-dasharray: none; stroke-linecap: butt; stroke-linejoin: miter; stroke-miterlimit: 4; fill: #ed1313; fill-rule: ; opacity: 1;"> </tspan><tspan x="72.19" y="8.98" style="stroke: none; stroke-width: 0; stroke-dasharray: none; stroke-linecap: butt; stroke-linejoin: miter; stroke-miterlimit: 4; fill: #ed1313; fill-rule: ; opacity: 1;">c</tspan><tspan x="89.94" y="8.98" style="stroke: none; stroke-width: 0; stroke-dasharray: none; stroke-linecap: butt; stroke-linejoin: miter; stroke-miterlimit: 4; fill: #ed1313; fill-rule: ; opacity: 1;">o</tspan><tspan x="109.94" y="8.98" style="stroke: none; stroke-width: 0; stroke-dasharray: none; stroke-linecap: butt; stroke-linejoin: miter; stroke-miterlimit: 4; fill: #ed1313; fill-rule: ; opacity: 1;">o</tspan><tspan x="129.94" y="8.98" style="stroke: none; stroke-width: 0; stroke-dasharray: none; stroke-linecap: butt; stroke-linejoin: miter; stroke-miterlimit: 4; fill: #ed1313; fill-rule: ; opacity: 1;">l</tspan></text>
 </g>
</svg>